<?xml version="1.0" encoding="utf-8"?>
<!-- Generator: Adobe Illustrator 16.0.0, SVG Export Plug-In . SVG Version: 6.00 Build 0)  -->
<!DOCTYPE svg PUBLIC "-//W3C//DTD SVG 1.1//EN" "http://www.w3.org/Graphics/SVG/1.1/DTD/svg11.dtd">
<svg version="1.1" id="Calque_1" xmlns="http://www.w3.org/2000/svg" xmlns:xlink="http://www.w3.org/1999/xlink" x="0px" y="0px"
	 width="42.374px" height="42.375px" viewBox="40.847 29.293 42.374 42.375" enable-background="new 40.847 29.293 42.374 42.375"
	 xml:space="preserve">
<path fill="#FFFFFF" d="M62.164,44.265c3.353-3.565,6.146-6.574,8.99-9.536c2.201-2.298,4.826-3.231,7.332-0.803
	c2.494,2.424,1.694,5.07-0.598,7.323c-3.016,2.962-6.066,5.885-9.413,9.127c3.354,3.312,6.256,6.184,9.168,9.052
	c2.379,2.343,3.504,5.038,0.787,7.648c-2.513,2.416-5.147,1.398-7.327-0.894c-2.824-2.974-5.597-5.995-8.951-9.592
	c-3.296,3.452-6.108,6.396-8.915,9.339c-2.269,2.379-4.937,3.725-7.646,1.096c-2.707-2.628-1.493-5.326,0.881-7.65
	c2.917-2.852,5.828-5.707,9.047-8.867c-3.283-3.24-6.186-6.112-9.094-8.979c-2.381-2.346-3.507-5.038-0.789-7.65
	c2.516-2.417,5.127-1.377,7.334,0.892C55.83,37.709,58.676,40.66,62.164,44.265z"/>
</svg>
