<?xml version="1.0" encoding="utf-8"?>
<!-- Generator: Adobe Illustrator 16.0.0, SVG Export Plug-In . SVG Version: 6.00 Build 0)  -->
<!DOCTYPE svg PUBLIC "-//W3C//DTD SVG 1.1//EN" "http://www.w3.org/Graphics/SVG/1.1/DTD/svg11.dtd">
<svg version="1.1" id="Calque_1" xmlns="http://www.w3.org/2000/svg" xmlns:xlink="http://www.w3.org/1999/xlink" x="0px" y="0px"
	 width="117.667px" height="99.667px" viewBox="0 0 117.667 99.667" enable-background="new 0 0 117.667 99.667"
	 xml:space="preserve">
<path fill-rule="evenodd" clip-rule="evenodd" fill="#FFFFFF" d="M58.963,41.063c3.352-3.565,6.146-6.574,8.989-9.536
	c2.202-2.298,4.827-3.231,7.332-0.803c2.495,2.424,1.695,5.07-0.597,7.323c-3.016,2.962-6.067,5.885-9.413,9.127
	c3.354,3.312,6.256,6.184,9.168,9.052c2.379,2.343,3.504,5.038,0.787,7.648c-2.513,2.417-5.148,1.399-7.327-0.893
	c-2.825-2.973-5.597-5.995-8.951-9.592c-3.296,3.453-6.108,6.395-8.915,9.339c-2.269,2.379-4.937,3.724-7.646,1.096
	c-2.707-2.628-1.493-5.327,0.881-7.65c2.917-2.852,5.828-5.708,9.047-8.868c-3.283-3.24-6.186-6.112-9.094-8.979
	c-2.381-2.346-3.507-5.038-0.789-7.65c2.516-2.417,5.127-1.377,7.334,0.892C52.629,34.507,55.475,37.458,58.963,41.063z"/>
</svg>
