<?xml version="1.0" encoding="utf-8"?>
<!-- Generator: Adobe Illustrator 16.0.0, SVG Export Plug-In . SVG Version: 6.00 Build 0)  -->
<!DOCTYPE svg PUBLIC "-//W3C//DTD SVG 1.1//EN" "http://www.w3.org/Graphics/SVG/1.1/DTD/svg11.dtd">
<svg version="1.1" id="Calque_1" xmlns="http://www.w3.org/2000/svg" xmlns:xlink="http://www.w3.org/1999/xlink" x="0px" y="0px"
	 width="200px" height="200px" viewBox="0 0 200 200" enable-background="new 0 0 200 200" xml:space="preserve">
<g id="Calque_1_1_">
	<path fill="#565656" d="M644.578-38.449c-21.396-0.386-110.758,0-110.758,0S515.8-40.702,515.8-19.676v75.841
		c0,0-2.054,19.229,21.95,19.335c0.066,0,4.725-0.01,4.792-0.01l-4.59,29.483l30.715-30.024l15.09-0.011h60.823
		c0,0,18.396,1.971,18.396-18.397c0-15.769,0-73.964,0-73.964S665.416-38.074,644.578-38.449z M564.9,35.702h-26.573V2.861H564.9
		V35.702z M636.512,31.319l-66.887,0.005l0.025-2.685h66.861V31.319z M636.512,20.256l-66.887,0.005l0.025-2.685h66.861V20.256z
		 M636.512,9.194l-66.887,0.005l0.025-2.685h66.861V9.194z"/>
</g>
<g id="Calque_2">
	<polygon fill="#565656" points="644.313,147.969 718.5,213 701.832,213 701.832,297.167 660.833,297.167 660.833,257 627.5,257 
		627.5,297.167 586.5,297.167 586.5,213 569.833,213 	"/>
</g>
<g>
	<g>
		<g>
			<rect x="54.123" y="31.155" fill="none" width="92.377" height="142.344"/>
			<g>
				<polygon fill="#565656" points="125.303,31.155 146.5,52.348 96.528,102.324 146.5,152.298 125.303,173.499 54.125,102.324 				
					"/>
			</g>
		</g>
	</g>
</g>
</svg>
