<?xml version="1.0" encoding="utf-8"?>
<!-- Generator: Adobe Illustrator 17.0.0, SVG Export Plug-In . SVG Version: 6.00 Build 0)  -->
<!DOCTYPE svg PUBLIC "-//W3C//DTD SVG 1.1//EN" "http://www.w3.org/Graphics/SVG/1.1/DTD/svg11.dtd">
<svg version="1.1" id="Calque_1" xmlns="http://www.w3.org/2000/svg" xmlns:xlink="http://www.w3.org/1999/xlink" x="0px" y="0px"
	 width="116.936px" height="172.229px" viewBox="0 0 116.936 172.229" enable-background="new 0 0 116.936 172.229"
	 xml:space="preserve">
<g>
	<path fill="#0E87AC" d="M0,134.893"/>
	<polygon fill="#F0F3F0" points="15.275,125.368 2.629,134.73 4.107,141.299 16.589,146.062 114.802,146.062 115.624,40.786 
		115.624,18.779 110.04,18.779 110.04,4.162 98.05,4.162 88.36,121.262 	"/>
	<path fill="#A91717" d="M1.533,16.214c0,0-1.532-16.005,20.365-16.214h83.65v134.893H17.3c0,0-18.833,1.535-13.358,5.258
		c0,0,0.765,3.502,13.029,4.925h61.644h34.052V20.148h-2.299V13.14l6.569,0.438v136.645H20.585c0,0-18.385-1.644-19.075-8.87
		L1.533,16.214z"/>
	<polygon fill="#352F2F" points="21.351,134.893 21.351,172.229 34.49,158.105 46.972,172.229 46.972,134.893 	"/>
	
		<rect x="10.279" y="10.02" fill="none" stroke="#F5E468" stroke-width="2" stroke-miterlimit="10" width="87.224" height="114.029"/>
	<polygon opacity="0.1" points="17.3,134.893 105.549,0 105.549,134.893 	"/>
	<path fill="#0E87AC" d="M0,134.893"/>
	<polygon fill="#F0F3F0" points="15.275,125.368 2.629,134.73 4.107,141.299 16.589,146.062 114.802,146.062 115.624,40.786 
		115.624,18.779 110.04,18.779 110.04,4.162 98.05,4.162 88.36,121.262 	"/>
	<path fill="#C51D03" d="M1.533,16.214c0,0-1.532-16.005,20.365-16.214h83.65v134.893H17.3c0,0-18.833,1.535-13.358,5.258
		c0,0,0.765,3.502,13.029,4.925h61.644h34.052V20.148h-2.299V13.14l6.569,0.438v136.645H20.585c0,0-18.385-1.644-19.075-8.87
		L1.533,16.214z"/>
	<polygon fill="#352F2F" points="21.351,134.893 21.351,172.229 34.49,158.105 46.972,172.229 46.972,134.893 	"/>
	
		<rect x="10.279" y="10.02" fill="none" stroke="#F2D83B" stroke-width="2" stroke-miterlimit="10" width="87.224" height="114.029"/>
	<polygon opacity="0.1" points="17.3,134.893 105.549,0 105.549,134.893 	"/>
</g>
</svg>
