<?xml version="1.0" encoding="utf-8"?>
<!-- Generator: Adobe Illustrator 16.0.0, SVG Export Plug-In . SVG Version: 6.00 Build 0)  -->
<!DOCTYPE svg PUBLIC "-//W3C//DTD SVG 1.1//EN" "http://www.w3.org/Graphics/SVG/1.1/DTD/svg11.dtd">
<svg version="1.1" id="Calque_1" xmlns="http://www.w3.org/2000/svg" xmlns:xlink="http://www.w3.org/1999/xlink" x="0px" y="0px"
	 width="60px" height="60px" viewBox="0 0 60 60" enable-background="new 0 0 60 60" xml:space="preserve">
<g>
	
		<image overflow="visible" opacity="0.75" enable-background="new    " width="68" height="68" xlink:href="9A886F61.png"  transform="matrix(1 0 0 1 -4.9995 -3)">
	</image>
	<g>
		<path fill="#6B6B6B" d="M28.196,57.166C13.176,57.166,1,44.99,1,29.97C1,14.95,13.176,2.774,28.196,2.774
			S55.393,14.95,55.393,29.97C55.393,44.99,43.216,57.166,28.196,57.166"/>
	</g>
</g>
<circle fill="#CCCCCC" stroke="#6B6B6B" stroke-width="0.5" stroke-miterlimit="10" cx="28.196" cy="27.974" r="27.196"/>
<circle fill="#999999" stroke="#6B6B6B" stroke-width="0.5" stroke-miterlimit="10" cx="28.612" cy="28.223" r="22.04"/>
<path fill="#6B6B6B" d="M50.568,28.057c0,0,1.58-21.666-22.04-22.04c-12.171-0.193-22.04,9.868-22.04,22.04
	c0,0,2.994-20.543,21.957-20.21C28.446,7.847,49.279,6.766,50.568,28.057z"/>
<g enable-background="new    ">
	<path fill="#FFFFFF" d="M22.218,16.317c0.453-0.399,0.948-0.778,1.487-1.138s1.121-0.672,1.747-0.938
		c0.625-0.266,1.304-0.476,2.036-0.629c0.731-0.152,1.523-0.229,2.375-0.229c1.158,0,2.212,0.16,3.165,0.479
		c0.951,0.319,1.766,0.775,2.444,1.367s1.204,1.308,1.577,2.146c0.372,0.839,0.559,1.776,0.559,2.814
		c0,1.012-0.146,1.887-0.439,2.625s-0.658,1.381-1.098,1.926c-0.439,0.546-0.922,1.019-1.447,1.418
		c-0.525,0.398-1.021,0.775-1.486,1.127c-0.467,0.354-0.869,0.699-1.208,1.038c-0.339,0.34-0.542,0.723-0.608,1.148l-0.459,2.914
		h-3.374l-0.339-3.254c-0.08-0.625,0.01-1.174,0.269-1.646c0.26-0.473,0.605-0.905,1.038-1.298s0.915-0.771,1.447-1.138
		c0.532-0.365,1.031-0.765,1.498-1.197c0.465-0.433,0.854-0.918,1.167-1.457s0.47-1.181,0.47-1.927c0-0.479-0.09-0.908-0.27-1.287
		s-0.43-0.705-0.749-0.979c-0.319-0.272-0.702-0.481-1.147-0.628c-0.446-0.146-0.928-0.22-1.447-0.22
		c-0.759,0-1.401,0.083-1.926,0.249c-0.526,0.167-0.972,0.353-1.337,0.56c-0.366,0.206-0.675,0.393-0.928,0.559
		s-0.479,0.249-0.679,0.249c-0.479,0-0.825-0.199-1.038-0.599L22.218,16.317z M25.991,39.851c0-0.412,0.076-0.805,0.229-1.178
		c0.153-0.372,0.362-0.691,0.628-0.958c0.266-0.266,0.585-0.479,0.958-0.639c0.372-0.159,0.771-0.239,1.197-0.239
		s0.822,0.08,1.188,0.239c0.366,0.16,0.685,0.373,0.958,0.639c0.272,0.267,0.488,0.586,0.648,0.958
		c0.16,0.373,0.24,0.766,0.24,1.178c0,0.426-0.08,0.822-0.24,1.188c-0.16,0.366-0.376,0.683-0.648,0.948
		c-0.273,0.267-0.592,0.477-0.958,0.629c-0.366,0.153-0.762,0.229-1.188,0.229s-0.825-0.076-1.197-0.229
		c-0.373-0.152-0.692-0.362-0.958-0.629c-0.266-0.266-0.476-0.582-0.628-0.948C26.067,40.673,25.991,40.276,25.991,39.851z"/>
</g>
</svg>
