<?xml version="1.0" encoding="utf-8"?>
<!-- Generator: Adobe Illustrator 16.0.0, SVG Export Plug-In . SVG Version: 6.00 Build 0)  -->
<!DOCTYPE svg PUBLIC "-//W3C//DTD SVG 1.1//EN" "http://www.w3.org/Graphics/SVG/1.1/DTD/svg11.dtd">
<svg version="1.1" id="Calque_1" xmlns="http://www.w3.org/2000/svg" xmlns:xlink="http://www.w3.org/1999/xlink" x="0px" y="0px"
	 width="844.041px" height="560.513px" viewBox="0 0 844.041 560.513" enable-background="new 0 0 844.041 560.513"
	 xml:space="preserve">
<g opacity="0.3">
	<path opacity="0.9" d="M243.875,36.895l25.35-0.43l5.806,9.56l2.32-10.838h19.157l0.58,5.102l3.486-4.468l25.547-1.907l3.486,7.015
		l1.159-7.653l27.868-2.545c0,0,4.646,7.014,8.126,0c0,0,46.444-2.557,58.062-8.926l3.479,9.56l2.326-8.927
		c0,0,51.091-3.823,70.833-10.198l45.87-5.097l1.734,15.929l2.905-17.207l23.224,0.634l4.06,3.824l8.126-8.282l13.942-0.633
		l4.646,8.915l5.8-8.915h5.807l5.225,7.647l2.906-2.557l29.607,0.645l4.065-5.103l8.712,10.199l3.479-6.375l73.733,1.278
		l4.076,9.559l2.32-5.74c0,0,21.472-0.639,29.598,5.74l1.171,10.205l5.225-7.014c0,0,15.672-0.645,28.448,12.111l-16.158,9.547
		l-57,23.605c0,0,18.644,90.167,25.035,139.904c0,0,22.172,123.118,8.815,209.821c0,0-5.869,101.126-27.738,118.548
		c0,0-138.288-17.121-172.349-6.923l-1.552-6.799l-12.386,8.502l-46.449,1.697l-6.192-34.002l-1.547,32.305
		c0,0-26.321,0-43.357,1.697l-4.635-8.496l-3.099,10.198c0,0-89.802,10.193-100.64,11.901l-4.641-11.901l-4.646,13.604
		c0,0-65.033,6.799-75.859,10.199l-4.646-13.609l-12.395,10.209c0,0-69.668,10.205-119.206-30.601c0,0,4.532-24.856,9.951-59.867
		c0.618-3.989,12.911-8.855,13.54-13.077c0.649-4.291-10.36-7.942-9.711-12.438c2.293-15.832,4.598-32.804,6.665-49.903
		c0.661-5.425,5.242-11.499,5.838-16.906c0.79-7.111-2.422-13.556-1.756-20.537c0.8-8.384,6.777-16.703,7.342-24.668
		c0.263-3.84-4.785-7.535-4.587-11.234c0.951-17.444,1.133-33.164,0.178-45.705c-0.21-2.755-0.479-5.365-0.807-7.798
		c0,0,3.282-4.398,2.423-11.165c-1.407-11.037-7.433-29.248-9.141-51.381c-0.178-2.256,3.722-4.345,3.556-6.665
		c-0.15-2.144-4.367-4.517-4.506-6.719c-1.016-15.999-1.708-33.19-1.666-50.198c0.006-2.053,3.357-4.098,3.385-6.145
		c0.021-1.863-3.277-3.728-3.229-5.58c0.08-3.545,0.204-7.068,0.371-10.553c0.155-3.373,16.81-10.098,20.155-14.008
		c2.251-2.615-19.038-2.84-18.694-6.165c2.572-25.269,7.932-46.935,17.766-59.13C172.57,31.567,224.396,40.724,243.875,36.895z"/>
	<path d="M734.225,50.979c0,0,8.142-15.285,23.823-14.013l3.48,3.83l1.751-5.747c0,0,13.347-4.028,19.731,2.341"/>
	<path d="M783.011,37.39c0,0-11.601,13.6-26.713,13.6l19.162,6.38C775.46,57.369,795.783,48.442,783.011,37.39z"/>
	<g>
		<path d="M817.893,32.003c0,0-41.22,24.859-78.379,17.213c0,0,41.811,207.836,39.495,304.738c0,0-1.159,131.322-38.309,186.161
			c0,0,5.807,14.023,15.087,12.75l8.131-2.546l-2.32,7.647c0,0,25.554,5.092,38.325,0l5.8-28.061v30.606
			c0,0,35.994-0.005,37.159-14.033C842.882,546.479,809.193,272.348,817.893,32.003z"/>
	</g>
</g>
<path opacity="0.9" fill="#E5DBD1" d="M246.542,35.495l25.354-0.425l5.8,9.56l2.326-10.838h19.161l0.575,5.102l3.485-4.468
	l25.543-1.912l3.49,7.015l1.156-7.648l27.873-2.556c0,0,4.64,7.013,8.125,0c0,0,46.439-2.546,58.062-8.915l3.48,9.559l2.325-8.926
	c0,0,51.086-3.824,70.833-10.204l45.865-5.092l1.74,15.935l2.905-17.212l23.223,0.634l4.06,3.824l8.132-8.288L603.988,0l4.65,8.927
	L614.433,0h5.806l5.231,7.658l2.905-2.556l29.608,0.644l4.065-5.107l8.711,10.199l3.48-6.369l73.728,1.277l4.076,9.56l2.32-5.734
	c0,0,21.477-0.645,29.603,5.734l1.165,10.205l5.231-7.025c0,0,15.666-0.633,28.448,12.117L800.732,41.3l-55.084,22.461
	c0,0,17.6,88.928,23.985,138.654c0,0,26.575,126.203,13.224,212.906c0,0-9.223,99.285-31.097,116.713
	c0,0-138.283-17.121-172.343-6.928l-1.553-6.794l-12.385,8.496l-46.45,1.703l-6.197-34.007l-1.547,32.304c0,0-26.316,0-43.352,1.703
	l-4.636-8.502l-3.104,10.198c0,0-89.797,10.199-100.635,11.901l-4.641-11.901l-4.65,13.609c0,0-65.022,6.794-75.86,10.199
	l-4.646-13.609l-12.385,10.204c0,0-69.672,10.204-119.211-30.602c0,0,4.522-24.851,9.952-59.861
	c0.617-3.984,12.905-8.855,13.539-13.083c0.645-4.291-10.365-7.942-9.716-12.433c2.299-15.843,4.604-32.81,6.671-49.914
	c0.66-5.414,5.235-11.482,5.837-16.896c0.791-7.121-2.416-13.561-1.756-20.542c0.801-8.39,6.783-16.703,7.337-24.668
	c0.269-3.84-4.786-7.534-4.587-11.229c0.956-17.443,1.139-33.163,0.178-45.704c-0.205-2.766-0.479-5.371-0.807-7.809
	c0,0,3.287-4.394,2.428-11.16c-1.406-11.037-7.432-29.254-9.15-51.381c-0.178-2.25,3.732-4.344,3.565-6.659
	c-0.146-2.153-4.372-4.517-4.506-6.719c-1.015-15.999-1.702-33.19-1.671-50.204c0.012-2.053,3.363-4.098,3.385-6.139
	c0.026-1.869-3.271-3.728-3.223-5.58c0.08-3.551,0.203-7.073,0.364-10.553c0.161-3.385,16.815-10.098,20.162-14.008
	c2.245-2.621-19.034-2.841-18.696-6.176c2.568-25.264,7.934-46.929,17.767-59.12C175.241,30.172,227.056,39.329,246.542,35.495z"/>
<path fill="#C6BEB9" d="M790.419,35.8c0,0-12.816,12.031-27.924,12.031l19.162,6.375C781.658,54.206,797.857,58.737,790.419,35.8z"
	/>
<path fill="#D6C9BF" d="M765.482,48.8c0,0-30.466,3.79-24.208-2.791c3.054-3.213,10.173-13.244,22.973-12.206l3.48,3.823
	l1.745-5.735c0,0,10.979-2.847,18.1,1.019C800.732,40.05,764.978,48.296,765.482,48.8"/>
<g>
	<path fill="#E5DBD1" d="M819.045,30.603c0,0-41.219,24.865-78.378,17.217c0,0,41.82,207.832,39.5,304.734
		c0,0-1.159,131.322-38.308,186.162c0,0,5.805,14.022,15.091,12.755l8.126-2.552l-2.32,7.648c0,0,25.548,5.091,38.319,0l5.8-28.056
		v30.602c0,0,35.999,0,37.165-14.028C844.041,545.085,810.351,270.953,819.045,30.603z"/>
	<path fill="#D6C9BF" d="M751.315,546.967l-1.333-1.334l-1.5,3.167c0,0-4.419-2.541-7.167-10.5c0,0,22.173-23.412,31.909-100.859
		c9.221-73.348,7.775-194.785-32.807-389.621l5.397,0.48c0,0,36.384,187.132,38,265.333c0,0,11.667,126.834-32.333,232.834"/>
</g>
<g opacity="0.3">
	<polygon points="153.138,123.354 0.167,123.354 21.789,159.886 1.875,192.399 157.113,192.399 159.159,191.17 154.878,185.595 
		153.02,132.389 156.367,128.108 	"/>
</g>
<g>
	<linearGradient id="SVGID_1_" gradientUnits="userSpaceOnUse" x1="82.1631" y1="120.8545" x2="82.1631" y2="189.8994">
		<stop  offset="0" style="stop-color:#B1E810"/>
		<stop  offset="0.2231" style="stop-color:#AAE60E"/>
		<stop  offset="0.5361" style="stop-color:#98E00A"/>
		<stop  offset="0.9006" style="stop-color:#7AD602"/>
		<stop  offset="1" style="stop-color:#71D300"/>
	</linearGradient>
	<polygon fill="url(#SVGID_1_)" points="155.638,120.854 2.667,120.854 24.289,157.386 4.375,189.899 159.613,189.899 
		161.659,188.67 157.378,183.095 155.52,129.889 158.867,125.608 	"/>
</g>
<g opacity="0.3">
	<path d="M158.767,222.024L158.767,222.024H0.333l21.623,36.536L2.042,291.074l161.935-0.393c0,0-1.493-20.468-1.493-30.145
		c0-1.031,2.659-4.748,2.61-5.951C164.572,241.315,158.761,222.024,158.767,222.024z"/>
</g>
<g>
	<linearGradient id="SVGID_2_" gradientUnits="userSpaceOnUse" x1="85.0479" y1="219.3574" x2="85.0479" y2="288.4077">
		<stop  offset="0.0161" style="stop-color:#19BACA"/>
		<stop  offset="0.2907" style="stop-color:#15B1C8"/>
		<stop  offset="0.7402" style="stop-color:#0898C3"/>
		<stop  offset="1" style="stop-color:#0087BF"/>
	</linearGradient>
	<path fill="url(#SVGID_2_)" d="M161.1,219.357L161.1,219.357H2.667l21.621,36.536L4.375,288.407l161.936-0.392
		c0,0-1.494-20.468-1.494-30.146c0-1.031,2.659-4.748,2.611-5.951C166.906,238.649,161.095,219.357,161.1,219.357z"/>
</g>
<g opacity="0.3">
	<path d="M167.5,322.723H0l21.623,36.531L1.708,391.762l153.379-0.215l0.741-7.073c0,0,6.697-11.906,5.956-17.856
		c-0.929-7.396-1.858-4.098-2.604-13.024c-0.146-1.719-0.236-4.055,0.746-6.326C165.876,333.502,167.5,322.723,167.5,322.723z"/>
</g>
<g>
	<linearGradient id="SVGID_3_" gradientUnits="userSpaceOnUse" x1="86.4165" y1="320.3896" x2="86.4165" y2="389.4287">
		<stop  offset="0.0161" style="stop-color:#F7931E"/>
		<stop  offset="0.269" style="stop-color:#F68A1F"/>
		<stop  offset="0.6829" style="stop-color:#F37122"/>
		<stop  offset="1" style="stop-color:#F15A24"/>
	</linearGradient>
	<path fill="url(#SVGID_3_)" d="M170.166,320.39H2.667l21.621,36.53L4.375,389.429l153.379-0.215l0.742-7.073
		c0,0,6.697-11.907,5.955-17.857c-0.928-7.395-1.857-4.098-2.604-13.023c-0.146-1.719-0.236-4.055,0.746-6.327
		C168.543,331.168,170.166,320.39,170.166,320.39z"/>
</g>
</svg>
