<?xml version="1.0" encoding="utf-8"?>
<!-- Generator: Adobe Illustrator 17.0.0, SVG Export Plug-In . SVG Version: 6.00 Build 0)  -->
<!DOCTYPE svg PUBLIC "-//W3C//DTD SVG 1.1//EN" "http://www.w3.org/Graphics/SVG/1.1/DTD/svg11.dtd">
<svg version="1.1" xmlns="http://www.w3.org/2000/svg" xmlns:xlink="http://www.w3.org/1999/xlink" x="0px" y="0px" width="200px"
	 height="200px" viewBox="0 0 200 200" enable-background="new 0 0 200 200" xml:space="preserve">
<g id="Calque_1">
	<path fill="#565656" d="M37.49,37.438c0,0,19.007,30.804,59.97,34.736c0,0-1.311-29.821,26.872-36.703
		c0,0,19.99-3.605,31.787,9.176c0,0,11.142-2.294,24.25-11.47c0,0-3.932,15.402-7.865,18.024c0,0,7.537-2.294,12.78-5.571
		c0,0-4.916,18.352-19.006,24.578c0,0,6.226,48.5-44.24,82.253c0,0-47.517,31.132-104.537-6.882c0,0,32.443,0,46.206-8.192
		c0,0-20.645-7.865-24.578-29.166l8.848,2.622c0,0-18.351-9.831-18.351-33.098l9.831,4.588
		C39.456,82.334,22.087,59.067,37.49,37.438z"/>
	<path fill="#565656" d="M338.579-18.231c-21.397-0.386-110.758,0-110.758,0S209.8-20.484,209.8,0.542v75.841
		c0,0-2.054,19.229,21.95,19.335c0.067,0,4.724-0.01,4.792-0.01l-4.59,29.483l30.715-30.024l15.09-0.011h60.823
		c0,0,18.397,1.971,18.397-18.397c0-15.769,0-73.964,0-73.964S359.417-17.856,338.579-18.231z M258.901,55.92h-26.574V23.079h26.574
		V55.92z M330.511,51.537l-66.886,0.005l0.026-2.685h66.86V51.537z M330.511,40.474l-66.886,0.005l0.026-2.685h66.86V40.474z
		 M330.511,29.412l-66.886,0.005l0.026-2.685h66.86V29.412z"/>
</g>
<g id="Calque_2">
	<polygon fill="#565656" points="266.313,157.969 340.5,223 323.833,223 323.833,307.167 282.833,307.167 282.833,267 249.5,267 
		249.5,307.167 208.5,307.167 208.5,223 191.833,223 	"/>
</g>
</svg>
